<?xml version="1.0" encoding="utf-8"?>
<!-- Generator: Adobe Illustrator 24.1.3, SVG Export Plug-In . SVG Version: 6.00 Build 0)  -->
<svg version="1.1" id="svg514970377_22035" xmlns="http://www.w3.org/2000/svg" xmlns:xlink="http://www.w3.org/1999/xlink" x="0px"
	 y="0px" viewBox="0 0 102 58" style="enable-background:new 0 0 102 58;" xml:space="preserve">
<g>
	<path d="M23.2,27.9c0,0.3-0.1,0.6-0.2,0.7c-0.1,0.1-0.2,0.2-0.4,0.2c-0.2,0-0.4-0.1-0.5-0.3c-0.2-0.2-0.3-0.4-0.4-0.6
		c-0.1-0.2-0.2-0.4-0.4-0.6c-0.1-0.2-0.3-0.3-0.4-0.3c-0.2,0-0.5,0.1-0.8,0.3c-0.3,0.2-0.8,0.4-1.3,0.6c-0.5,0.2-1.2,0.4-1.9,0.6
		c-0.8,0.2-1.7,0.3-2.8,0.3c-2,0-3.8-0.3-5.4-1c-1.6-0.7-3-1.7-4.1-2.9c-1.1-1.2-2-2.7-2.6-4.4C1.3,18.8,1,16.9,1,14.9
		c0-2,0.3-3.9,1-5.6c0.6-1.7,1.5-3.2,2.7-4.4c1.2-1.2,2.5-2.2,4-2.9c1.6-0.7,3.3-1,5.1-1c1.4,0,2.6,0.2,3.5,0.5
		c0.9,0.3,1.6,0.6,2.1,0.9s0.8,0.5,1,0.5c0.3,0,0.4-0.1,0.6-0.4c0.1-0.3,0.2-0.5,0.4-0.8c0.1-0.3,0.3-0.4,0.6-0.4
		c0.1,0,0.2,0,0.3,0.1c0.1,0.1,0.2,0.2,0.2,0.4l1.9,6.5c0.1,0.2,0.1,0.3,0,0.4c-0.1,0.1-0.2,0.2-0.4,0.2c-0.1,0-0.3,0-0.4-0.1
		c-0.1-0.1-0.2-0.2-0.3-0.3c-0.7-1.5-1.5-2.8-2.4-3.7c-0.9-1-1.9-1.7-3.1-2.1C16.5,2.2,15.2,2,13.8,2c-1.9,0-3.5,0.5-5,1.5
		c-1.5,1-2.7,2.4-3.5,4.2c-0.9,1.8-1.3,4-1.3,6.5c0,2.8,0.5,5.2,1.4,7.1c1,2,2.2,3.5,3.9,4.6c1.6,1.1,3.5,1.6,5.5,1.6
		c0.8,0,1.6-0.1,2.3-0.2c0.7-0.1,1.3-0.3,1.8-0.6c0.5-0.3,0.9-0.6,1.2-1c0.3-0.4,0.5-0.8,0.5-1.3v-5.2c0-0.3-0.1-0.5-0.2-0.7
		c-0.2-0.2-0.4-0.3-0.9-0.3l-1.8-0.2c-0.2,0-0.4-0.1-0.5-0.2c-0.1-0.1-0.2-0.2-0.2-0.3c0-0.1,0.1-0.2,0.2-0.3
		c0.1-0.1,0.3-0.1,0.5-0.1h7.9c0.2,0,0.4,0,0.5,0.1c0.1,0.1,0.2,0.2,0.2,0.3c0,0.1,0,0.2-0.1,0.3c-0.1,0.1-0.2,0.1-0.4,0.2l-1.2,0.2
		c-0.4,0.1-0.7,0.2-0.9,0.4c-0.2,0.1-0.2,0.4-0.2,0.7V27.9z"/>
	<path d="M40.8,26.7V25l-0.1-0.1V13.2c0-0.2,0-0.4-0.1-0.5c-0.1-0.1-0.2-0.2-0.4-0.2l-1.6,0c-0.2,0-0.3-0.1-0.4-0.1
		c-0.1-0.1-0.1-0.1-0.1-0.2c0-0.1,0-0.2,0.1-0.2c0.1-0.1,0.2-0.1,0.4-0.2l2.9-1c0.3-0.1,0.5-0.2,0.6-0.2c0.2,0,0.3-0.1,0.5-0.1
		c0.2,0,0.4,0.1,0.5,0.2c0.1,0.1,0.2,0.3,0.2,0.5v15c0,0.3,0.1,0.5,0.2,0.6c0.1,0.1,0.3,0.2,0.6,0.3l1.1,0.2c0.2,0,0.3,0.1,0.4,0.2
		c0.1,0.1,0.1,0.2,0.1,0.3c0,0.1-0.1,0.2-0.2,0.3c-0.1,0.1-0.2,0.1-0.4,0.1h-3c-0.4,0-0.8-0.1-1-0.3C40.9,27.6,40.8,27.2,40.8,26.7z
		 M29.2,23.1v-9.9c0-0.2,0-0.4-0.1-0.5c-0.1-0.1-0.2-0.2-0.4-0.2l-1.6,0c-0.2,0-0.3-0.1-0.4-0.1c-0.1-0.1-0.1-0.1-0.1-0.2
		c0-0.1,0-0.2,0.1-0.2c0.1-0.1,0.2-0.1,0.4-0.2l3-1c0.3-0.1,0.5-0.2,0.7-0.2c0.2,0,0.3-0.1,0.4-0.1c0.2,0,0.4,0.1,0.5,0.2
		c0.1,0.1,0.2,0.3,0.2,0.5v11.5c0,1.4,0.3,2.5,1,3.2c0.7,0.7,1.6,1,2.7,1c0.7,0,1.4-0.2,2.2-0.5c0.8-0.4,1.7-1,2.6-1.8l0.8-0.7
		l0.5,0.5l-0.9,0.7c-1.4,1.2-2.6,2.1-3.6,2.6c-1,0.5-2,0.7-3,0.7c-1.5,0-2.7-0.5-3.7-1.4C29.7,26.2,29.2,24.8,29.2,23.1z"/>
	<path d="M54.4,27.6c1,0,1.8-0.3,2.5-0.8c0.6-0.6,0.9-1.3,0.9-2.2c0-0.6-0.1-1.1-0.4-1.5c-0.3-0.5-0.7-0.9-1.4-1.2s-1.6-0.7-2.8-1.1
		c-1.5-0.4-2.7-0.9-3.6-1.4c-0.9-0.6-1.5-1.2-1.9-1.9c-0.4-0.7-0.6-1.5-0.6-2.3c0-1.5,0.5-2.6,1.6-3.5c1-0.9,2.5-1.3,4.4-1.3
		c0.7,0,1.3,0.1,1.8,0.2c0.5,0.1,0.9,0.3,1.2,0.4c0.3,0.1,0.6,0.2,0.8,0.2c0.2,0,0.4-0.1,0.5-0.2c0.1-0.1,0.3-0.3,0.4-0.4
		c0.1-0.1,0.3-0.2,0.4-0.2c0.1,0,0.2,0,0.3,0.1c0.1,0.1,0.1,0.2,0.2,0.4l1.5,4.3c0.1,0.2,0.1,0.4,0.1,0.6c0,0.1-0.1,0.2-0.3,0.3
		c-0.2,0.1-0.3,0.1-0.4,0c-0.1-0.1-0.2-0.2-0.3-0.3c-0.5-1.1-1.1-2-1.8-2.7c-0.6-0.6-1.3-1.1-2.1-1.3c-0.7-0.3-1.5-0.4-2.3-0.4
		c-1.3,0-2.3,0.3-2.9,0.9c-0.7,0.6-1,1.3-1,2.3c0,0.6,0.1,1.1,0.4,1.5c0.3,0.5,0.8,0.9,1.5,1.3c0.7,0.4,1.7,0.8,3,1.1
		c1.4,0.4,2.5,0.8,3.4,1.3c0.8,0.5,1.5,1.1,1.8,1.8c0.4,0.7,0.6,1.5,0.6,2.4c0,0.9-0.2,1.7-0.7,2.4c-0.4,0.7-1.1,1.3-1.9,1.7
		c-0.8,0.4-1.8,0.6-2.9,0.6c-0.7,0-1.3-0.1-1.8-0.3c-0.5-0.2-0.9-0.3-1.2-0.5c-0.3-0.2-0.6-0.3-0.8-0.3c-0.2,0-0.4,0.1-0.5,0.2
		c-0.1,0.2-0.2,0.3-0.3,0.5c-0.1,0.2-0.2,0.3-0.4,0.3c-0.1,0-0.2,0-0.2-0.1c-0.1-0.1-0.1-0.2-0.2-0.3l-0.9-4
		C48,23.7,48,23.5,48,23.4c0-0.2,0.1-0.3,0.3-0.3c0.2-0.1,0.3-0.1,0.4,0c0.1,0.1,0.2,0.2,0.3,0.5c0.7,1.5,1.5,2.5,2.5,3.1
		C52.4,27.3,53.4,27.6,54.4,27.6z"/>
	<path d="M63.2,11.8l-1.3-0.3c-0.3-0.1-0.5-0.2-0.6-0.2c-0.1-0.1-0.1-0.2-0.1-0.3c0-0.1,0-0.2,0.1-0.3c0.1-0.1,0.2-0.1,0.4-0.1h1.4
		c0.3,0,0.6,0,0.7-0.1c0.2-0.1,0.3-0.3,0.4-0.5l1.1-2.8c0.1-0.2,0.2-0.3,0.3-0.4c0.1-0.1,0.2-0.2,0.4-0.2s0.2,0,0.3,0.1
		c0.1,0.1,0.1,0.2,0.1,0.4v17.1c0,0.9,0.2,1.5,0.6,2c0.4,0.4,0.9,0.7,1.6,0.7c0.4,0,0.8-0.1,1-0.2c0.3-0.1,0.5-0.3,0.6-0.4
		c0.2-0.2,0.3-0.3,0.4-0.5c0.1-0.2,0.3-0.3,0.4-0.3c0.1,0,0.2,0,0.2,0.1c0.1,0.1,0.1,0.2,0.1,0.3c0,0.4-0.2,0.8-0.5,1.2
		c-0.3,0.4-0.7,0.7-1.3,0.9c-0.5,0.2-1.1,0.3-1.8,0.3c-1.2,0-2.1-0.3-2.8-0.9c-0.7-0.6-1-1.6-1-2.8V12.7c0-0.3-0.1-0.4-0.2-0.6
		C63.7,12,63.5,11.9,63.2,11.8z M65.2,11.6l0-1h5.6c0.2,0,0.3,0,0.4,0.1c0.1,0.1,0.1,0.2,0.1,0.3c0,0.2-0.1,0.3-0.3,0.4
		c-0.2,0.1-0.4,0.2-0.8,0.2H65.2z"/>
	<path d="M81.6,10.4c1.7,0,3.3,0.4,4.6,1.2c1.3,0.8,2.4,1.8,3.1,3.2c0.8,1.4,1.1,2.9,1.1,4.7c0,1.8-0.4,3.3-1.1,4.7
		c-0.8,1.4-1.8,2.4-3.2,3.2c-1.3,0.8-2.9,1.2-4.6,1.2c-1.7,0-3.2-0.4-4.6-1.2c-1.3-0.8-2.4-1.8-3.1-3.2c-0.7-1.4-1.1-2.9-1.1-4.7
		c0-1.8,0.4-3.3,1.1-4.7c0.8-1.4,1.8-2.4,3.1-3.2C78.3,10.8,79.8,10.4,81.6,10.4z M82.8,27.5c1.2-0.2,2.2-0.6,3-1.3
		c0.8-0.8,1.4-1.8,1.7-3c0.3-1.3,0.4-2.7,0.1-4.4c-0.2-1.7-0.7-3.1-1.4-4.2c-0.7-1.1-1.5-2-2.5-2.5c-1-0.5-2.1-0.7-3.4-0.6
		c-1.2,0.2-2.2,0.6-3,1.4c-0.8,0.8-1.3,1.8-1.7,3c-0.3,1.3-0.3,2.7-0.1,4.4c0.2,1.7,0.7,3.1,1.4,4.2c0.7,1.1,1.5,2,2.5,2.5
		C80.4,27.4,81.5,27.6,82.8,27.5z"/>
	<path d="M38.4,30.5c0-0.1,0.1-0.2,0.2-0.3c0.1-0.1,0.3-0.1,0.4-0.1h6.6c0.2,0,0.4,0,0.5,0.1c0.1,0.1,0.2,0.2,0.2,0.3
		c0,0.1-0.1,0.3-0.2,0.4c-0.1,0.1-0.2,0.2-0.5,0.2L45,31.2c-0.4,0.1-0.8,0.3-1.1,0.6c-0.3,0.3-0.7,0.6-1,1c-0.3,0.4-0.6,0.9-1,1.4
		l-12.2,19c-0.2,0.2-0.3,0.5-0.4,0.7c-0.1,0.2-0.2,0.5-0.3,0.7l-0.3,1.2c-0.1,0.3-0.2,0.5-0.4,0.6c-0.2,0.1-0.4,0.2-0.6,0.2h-1.7
		c-0.3,0-0.5-0.1-0.6-0.3c-0.1-0.2-0.1-0.4,0-0.7l0.4-1.2c0.1-0.3,0.2-0.5,0.2-0.8c0-0.2,0-0.5,0-0.8c0-0.3,0-0.8,0-1.5
		c0-0.7,0-1.6,0-2.6c0-1,0-2.1,0-3.3c0-1.2,0-2.4,0-3.6c0-1.2,0-2.4,0-3.6c0-1.2,0-2.2,0-3.2c0-1,0-1.7,0-2.3c0-0.4-0.1-0.8-0.2-1
		c-0.1-0.3-0.3-0.4-0.6-0.5L23.9,31c-0.2-0.1-0.3-0.1-0.4-0.2c-0.1-0.1-0.1-0.2-0.1-0.3c0-0.1,0.1-0.2,0.2-0.3
		c0.1-0.1,0.3-0.1,0.4-0.1h7.4c0.2,0,0.3,0,0.4,0.1c0.1,0.1,0.1,0.2,0.1,0.3c0,0.1-0.1,0.2-0.2,0.3c-0.1,0.1-0.2,0.2-0.4,0.2
		l-1.8,0.3c-0.4,0.1-0.6,0.2-0.8,0.6c-0.2,0.3-0.2,0.7-0.2,1.1c0,0.7,0,1.6,0,2.6c0,1,0,2.2,0,3.4c0,1.3,0,2.6,0,3.9
		c0,1.4,0,2.7,0,4.1c0,1.3,0,2.6,0,3.9c0,1.2,0,2.3,0,3.3l-0.8,0.3l13-20.3c0.3-0.5,0.5-1,0.5-1.3c0-0.4-0.1-0.7-0.2-1
		c-0.2-0.3-0.5-0.5-0.8-0.6L39,31C38.6,30.9,38.4,30.7,38.4,30.5z"/>
	<path d="M40.6,48.8c0,0,0.2-0.1,0.7-0.3c0.5-0.2,1.1-0.5,1.9-0.8c0.8-0.3,1.6-0.7,2.5-1c0.9-0.4,1.8-0.7,2.6-1.1
		c0.8-0.3,1.6-0.6,2.2-0.9l-0.3,0.5c0.1-0.2,0.1-0.5,0.2-0.8c0.1-0.3,0.1-0.7,0.1-1.1c0-0.9-0.2-1.7-0.6-2.3
		c-0.4-0.6-0.9-0.9-1.6-0.9c-0.7,0-1.4,0.2-2.1,0.7c-0.7,0.5-1.4,1.2-2,2.1c-0.6,0.9-1.2,1.9-1.6,3.1c-0.4,1.2-0.7,2.4-0.8,3.8
		c-0.2,1.9,0.1,3.3,0.9,4.3c0.7,1,1.7,1.4,3,1.4c0.8,0,1.6-0.2,2.4-0.5c0.8-0.3,1.5-0.8,2.1-1.5c0.6-0.6,1.1-1.4,1.4-2.4
		c0.1-0.2,0.2-0.3,0.3-0.4c0.1-0.1,0.2-0.1,0.3-0.1c0.1,0,0.2,0.1,0.3,0.2c0.1,0.1,0.1,0.3,0,0.5c-0.2,1-0.7,1.9-1.3,2.8
		c-0.7,0.8-1.6,1.5-2.7,2.1C47.3,56.7,46,57,44.4,57c-1.2,0-2.2-0.3-3-0.8C40.6,55.7,40,55,39.6,54c-0.4-1-0.5-2.1-0.4-3.5
		c0.1-1.5,0.4-2.9,1-4.3c0.6-1.4,1.3-2.6,2.2-3.6c0.9-1.1,1.9-1.9,3.1-2.5c1.1-0.6,2.3-0.9,3.5-0.9c0.8,0,1.6,0.2,2.1,0.6
		c0.6,0.4,1,0.9,1.3,1.5c0.3,0.6,0.5,1.3,0.5,2c0,0.2,0.1,0.3,0.1,0.4c0.1,0.1,0.2,0.1,0.4,0.1c0.2,0,0.3,0,0.3,0
		c0.1,0.1,0.1,0.1,0.1,0.2c0,0.1-0.1,0.2-0.2,0.4c-0.1,0.1-0.3,0.2-0.7,0.4c-0.4,0.2-1,0.4-1.7,0.7c-0.7,0.3-1.6,0.6-2.5,1
		c-0.9,0.4-1.8,0.7-2.8,1.1c-0.9,0.4-1.8,0.7-2.6,1c-0.8,0.3-1.4,0.6-1.9,0.8c-0.5,0.2-0.7,0.3-0.7,0.3L40.6,48.8z"/>
	<path d="M55.5,42.4c-0.1-0.1-0.1-0.1-0.1-0.2c0-0.1,0.1-0.3,0.2-0.5c0.3-0.5,0.7-0.9,1.1-1.3c0.4-0.4,0.9-0.6,1.4-0.8
		c0.5-0.2,1-0.3,1.5-0.3c0.5,0,1,0.1,1.3,0.4c0.3,0.3,0.5,0.7,0.5,1.2c0,0.5-0.1,1.1-0.3,1.8c-0.2,0.7-0.5,1.4-0.8,2.2
		c-0.3,0.8-0.6,1.5-0.9,2.3c-0.3,0.8-0.5,1.5-0.6,2.1l-0.2,0c0.4-1.4,0.9-2.7,1.5-3.9c0.6-1.2,1.3-2.3,2-3.2
		c0.7-0.9,1.5-1.6,2.3-2.2c0.8-0.5,1.6-0.8,2.4-0.8c0.8,0,1.4,0.2,1.8,0.7c0.4,0.4,0.6,1,0.6,1.7c0,0.5-0.1,0.9-0.3,1.3
		c-0.2,0.3-0.4,0.6-0.6,0.8c-0.3,0.2-0.5,0.3-0.9,0.3c-0.3,0-0.6-0.1-0.7-0.2c-0.2-0.2-0.2-0.4-0.2-0.6c0-0.2,0-0.5,0.1-0.7
		c0.1-0.2,0.1-0.4,0.1-0.7c0-0.3-0.1-0.6-0.2-0.8c-0.1-0.2-0.4-0.3-0.7-0.3c-0.6,0-1.4,0.4-2.2,1.2c-0.8,0.8-1.7,1.9-2.5,3.4
		c-0.8,1.5-1.6,3.3-2.3,5.5c-0.3,0.8-0.5,1.5-0.6,2c-0.1,0.5-0.2,0.9-0.2,1.3c0,0.3,0,0.5,0.1,0.6c0.1,0.1,0.2,0.3,0.3,0.4
		c0.1,0.1,0.2,0.3,0.2,0.5c0,0.2-0.1,0.4-0.3,0.6c-0.2,0.2-0.5,0.3-0.8,0.5c-0.4,0.1-0.8,0.2-1.3,0.2c-0.4,0-0.7-0.1-0.9-0.3
		c-0.2-0.2-0.3-0.5-0.2-1c0-0.4,0.2-1,0.4-1.7l3.2-10.1c0.4-1.1,0.5-1.9,0.4-2.3c-0.1-0.4-0.3-0.6-0.7-0.6c-0.2,0-0.5,0.1-0.8,0.2
		c-0.3,0.2-0.6,0.5-1.1,0.9c-0.2,0.1-0.3,0.2-0.4,0.3C55.7,42.5,55.6,42.5,55.5,42.4z"/>
	<path d="M83.4,41.3l-1.3,0.5c-0.2-0.5-0.5-0.9-0.9-1.2c-0.4-0.3-0.9-0.4-1.7-0.4c-0.9,0-1.7,0.2-2.6,0.6c-0.9,0.4-1.7,1-2.5,1.8
		c-0.8,0.7-1.5,1.6-2.1,2.6c-0.6,1-1.1,2-1.5,3.1c-0.4,1.1-0.6,2.2-0.7,3.3c-0.1,1.4,0,2.3,0.4,2.9c0.4,0.6,1,0.9,1.7,0.9
		c0.6,0,1.3-0.3,2.1-0.8c0.8-0.6,1.6-1.3,2.4-2.3c0.8-1,1.6-2.1,2.3-3.3s1.3-2.6,1.7-4l3.3-10.9c0.5-1.7,1.2-2.9,2.2-3.7
		c1-0.8,2.2-1.2,3.6-1.2c0.8,0,1.4,0.1,1.7,0.4c0.4,0.3,0.6,0.6,0.6,1c0,0.4-0.1,0.7-0.3,0.9c-0.2,0.2-0.6,0.4-1.1,0.4
		c-0.3,0-0.6-0.1-0.8-0.2c-0.2-0.1-0.4-0.2-0.6-0.4c-0.2-0.2-0.4-0.3-0.7-0.4C88.3,31.1,88,31,87.7,31c-0.6,0-1.1,0.3-1.6,0.8
		c-0.5,0.5-0.7,1.1-0.8,1.8c0,0.3,0,0.5,0,0.7c0,0.2,0.1,0.5,0.1,0.7c0,0.2,0.1,0.5,0.1,0.7c0,0.2,0,0.5,0,0.8
		c0,0.3-0.1,0.6-0.2,0.9L81,52.4c-0.3,1.1-0.5,1.9-0.4,2.4c0.1,0.4,0.3,0.6,0.7,0.6c0.2,0,0.5-0.1,0.8-0.2c0.3-0.2,0.6-0.5,1.1-0.9
		c0.2-0.2,0.3-0.3,0.4-0.3c0.1-0.1,0.2-0.1,0.3,0c0.1,0.1,0.1,0.1,0.1,0.3c0,0.1-0.1,0.3-0.2,0.5c-0.3,0.5-0.6,0.9-1,1.3
		c-0.4,0.4-0.9,0.6-1.3,0.8c-0.5,0.2-1,0.3-1.4,0.3c-0.6,0-1-0.1-1.4-0.4c-0.3-0.3-0.5-0.7-0.5-1.3c0-0.4,0.1-0.8,0.2-1.3
		c0.1-0.5,0.3-1.3,0.6-2.2c0.3-1,0.7-2.2,1.1-3.8l0.4,0.2c-0.9,1.9-1.9,3.6-3,4.9c-1.1,1.3-2.2,2.3-3.3,3C73,56.7,72,57,71,57
		c-0.7,0-1.4-0.2-2-0.5c-0.6-0.4-1-0.9-1.2-1.7c-0.3-0.8-0.3-1.8-0.2-3.1c0.1-1.6,0.6-3.2,1.3-4.6c0.7-1.5,1.7-2.8,2.8-4
		c1.2-1.2,2.4-2.1,3.8-2.8c1.4-0.7,2.8-1,4.2-1c0.7,0,1.3,0.1,1.8,0.3c0.5,0.2,0.9,0.4,1.2,0.7C83.1,40.6,83.3,40.9,83.4,41.3z"/>
	<path d="M87.4,48.8c0,0,0.2-0.1,0.7-0.3c0.5-0.2,1.1-0.5,1.9-0.8c0.8-0.3,1.6-0.7,2.5-1c0.9-0.4,1.8-0.7,2.6-1.1
		c0.8-0.3,1.6-0.6,2.2-0.9L97,45.2c0.1-0.2,0.1-0.5,0.2-0.8c0.1-0.3,0.1-0.7,0.1-1.1c0-0.9-0.2-1.7-0.6-2.3
		c-0.4-0.6-0.9-0.9-1.6-0.9c-0.7,0-1.4,0.2-2.1,0.7c-0.7,0.5-1.4,1.2-2,2.1c-0.6,0.9-1.2,1.9-1.6,3.1c-0.4,1.2-0.7,2.4-0.8,3.8
		c-0.2,1.9,0.1,3.3,0.9,4.3c0.7,1,1.7,1.4,3,1.4c0.8,0,1.6-0.2,2.4-0.5c0.8-0.3,1.5-0.8,2.1-1.5c0.6-0.6,1.1-1.4,1.4-2.4
		c0.1-0.2,0.2-0.3,0.3-0.4c0.1-0.1,0.2-0.1,0.3-0.1c0.1,0,0.2,0.1,0.3,0.2c0.1,0.1,0.1,0.3,0,0.5c-0.2,1-0.7,1.9-1.3,2.8
		c-0.7,0.8-1.6,1.5-2.7,2.1C94,56.7,92.7,57,91.2,57c-1.2,0-2.2-0.3-3-0.8c-0.8-0.5-1.4-1.3-1.8-2.2c-0.4-1-0.5-2.1-0.4-3.5
		c0.1-1.5,0.4-2.9,1-4.3c0.6-1.4,1.3-2.6,2.2-3.6c0.9-1.1,1.9-1.9,3.1-2.5c1.1-0.6,2.3-0.9,3.5-0.9c0.8,0,1.6,0.2,2.1,0.6
		c0.6,0.4,1,0.9,1.3,1.5c0.3,0.6,0.5,1.3,0.5,2c0,0.2,0.1,0.3,0.1,0.4c0.1,0.1,0.2,0.1,0.4,0.1c0.2,0,0.3,0,0.3,0
		c0.1,0.1,0.1,0.1,0.1,0.2c0,0.1-0.1,0.2-0.2,0.4c-0.1,0.1-0.3,0.2-0.7,0.4c-0.4,0.2-1,0.4-1.7,0.7c-0.7,0.3-1.6,0.6-2.5,1
		c-0.9,0.4-1.8,0.7-2.8,1.1c-0.9,0.4-1.8,0.7-2.6,1c-0.8,0.3-1.4,0.6-1.9,0.8c-0.5,0.2-0.7,0.3-0.7,0.3L87.4,48.8z"/>
</g>
</svg>
